<svg xmlns="http://www.w3.org/2000/svg" width="24" height="25" viewBox="0 0 24 25"><g><g><path fill="#c3ced9" d="M7.864 1.663c.076.06.055.127.048.15a12.766 12.766 0 0 0-.56 3.845c.05 6.985 5.771 12.663 12.755 12.662h.012c.71 0 1.422-.06 2.117-.177a.124.124 0 0 1 .138.066c.047.08.006.133-.008.15a11.245 11.245 0 0 1-8.945 4.385h-.025c-6.074-.013-11.138-4.96-11.288-11.03A11.332 11.332 0 0 1 7.72 1.651c.011-.006.033-.02.063-.02.023 0 .05.008.081.032zm15.64 17.58c.4-.516.441-1.212.106-1.773a1.566 1.566 0 0 0-1.613-.747c-.616.104-1.248.156-1.88.157h-.01c-6.195 0-11.27-5.037-11.315-11.232a11.32 11.32 0 0 1 .497-3.412 1.57 1.57 0 0 0-.53-1.701A1.56 1.56 0 0 0 6.993.408 12.773 12.773 0 0 0 .668 11.75c.082 3.326 1.449 6.448 3.847 8.79a12.685 12.685 0 0 0 8.878 3.644h.028c3.972 0 7.645-1.8 10.083-4.942z"/></g></g></svg>