<svg xmlns="http://www.w3.org/2000/svg" width="47" height="51" viewBox="0 0 47 51"><g><g><path fill="#ff3239" d="M41.44 36.178h-6.618v-6.975a.894.894 0 0 0-1.789 0v6.975h-6.677a.894.894 0 0 0 0 1.788h6.677v6.976a.894.894 0 0 0 1.789 0v-6.976h6.617a.894.894 0 0 0 0-1.788zm-7.602 12.34c-6.065 0-11-4.934-11-10.999s4.935-11 11-11 11 4.935 11 11-4.935 11-11 11zM1.912 36.179v-3.541c0-5.74 4.67-10.41 10.41-10.41h9.586c2.87 0 5.617 1.204 7.57 3.27-4.508 1.64-7.84 5.747-8.357 10.68zm5.992-24.906c0-5.054 4.112-9.166 9.166-9.166 5.055 0 9.167 4.112 9.167 9.166 0 5.055-4.112 9.167-9.167 9.167-5.054 0-9.166-4.112-9.166-9.167zm25.934 13.46c-.837 0-1.654.082-2.447.237a12.258 12.258 0 0 0-8.407-4.482c3.029-1.951 5.041-5.351 5.041-9.215 0-6.04-4.914-10.954-10.955-10.954-6.04 0-10.954 4.914-10.954 10.954 0 3.869 2.017 7.273 5.053 9.223C4.982 21.077.124 26.299.124 32.637v4.435c0 .494.4.894.894.894h20.043c.237 6.845 5.875 12.341 12.777 12.341 7.051 0 12.788-5.737 12.788-12.788s-5.737-12.788-12.788-12.788z"/></g></g></svg>