<svg xmlns="http://www.w3.org/2000/svg" width="24" height="24" viewBox="0 0 24 24"><g><g><path fill="#5d6989" d="M20.91 10.74c.035.322.053.649.053.98v1.263l2.253 1.509s.075 1.201-1.144 3.311c-.643 1.114-1.44 1.993-2.346 2.81l-2.461-1.225-.182-.105a8.908 8.908 0 0 1-1.802 1.028l-.259 2.922s.061.058-.007.077c0 0-2.277 1.37-6.889-.088l-.072-.12-.17-2.9a9.302 9.302 0 0 1-1.677-.973l-2.844 1.14C1.71 18.756.593 16.806.085 14.627l-.013-.052-.007-.027.037.005 2.35-1.697a9.331 9.331 0 0 1-.025-2.034L.105 9.068l-.011.002.002-.008-.013-.01.018-.009a11.93 11.93 0 0 1 1.272-3.185c.558-.966 1.4-1.906 2.172-2.656l-.002-.03L6.02 4.355a9.296 9.296 0 0 1 1.865-1.117l.18-2.793.018.012a11.948 11.948 0 0 1 6.92-.115l.277 2.786c.72.303 1.384.7 1.995 1.171l2.408-1.38c1.87 1.664 2.943 3.752 3.494 6.099zm-1.525-5.705l-2.599 1.116a7.619 7.619 0 0 0-3.079-1.783l-.04-1.367-.178-1.381a10.249 10.249 0 0 0-3.905.02l-.228 1.768-.08.986A7.613 7.613 0 0 0 6.258 6.18L3.795 5.022a10.3 10.3 0 0 0-1.109 1.56c-.346.6-.623 1.222-.836 1.854l1.071.818 1.167.806a7.647 7.647 0 0 0 .036 3.386l-2.166 1.617c.433 1.282 1.056 2.413 1.985 3.447l2.443-1.22a7.615 7.615 0 0 0 2.875 1.66l.288 2.853c1.326.268 2.676.263 3.975.013l.198-2.839a7.614 7.614 0 0 0 2.936-1.659l1.73.82-.004.004.909.379a10.302 10.302 0 0 0 1.992-3.416L18.939 13.5a7.63 7.63 0 0 0 .036-3.493l1.561-1.078c.235-.132.781-.476.781-.476a10.28 10.28 0 0 0-1.932-3.417zm-7.713 1.559c2.942 0 5.328 2.378 5.328 5.312s-2.386 5.313-5.328 5.313c-2.943 0-5.328-2.379-5.328-5.313 0-2.934 2.385-5.312 5.328-5.312zm-3.953 5.265a3.922 3.922 0 1 0 7.843 0 3.922 3.922 0 0 0-7.843 0z"/></g></g></svg>