<svg xmlns="http://www.w3.org/2000/svg" width="46" height="51" viewBox="0 0 46 51"><g><g><path fill="#ff3239" d="M11.51 34.884c0 1.04.845 1.886 1.886 1.886 1.04 0 1.886-.846 1.886-1.886s-.846-1.887-1.886-1.887-1.887.847-1.887 1.887zm-1.776 0a3.666 3.666 0 0 1 3.662-3.662 3.666 3.666 0 0 1 3.662 3.662 3.666 3.666 0 0 1-3.662 3.662 3.666 3.666 0 0 1-3.662-3.662zm32.9-3.662c0 .49-.397.888-.887.888H26.101a.888.888 0 1 1 0-1.776h15.646c.49 0 .888.398.888.888zm-17.476-3.33c0-.49.397-.887.888-.887h15.646a.888.888 0 0 1 0 1.776H26.046a.888.888 0 0 1-.888-.888zm-4.439 1.998H6.183v15.757h.336c.06-3.742 3.12-6.769 6.877-6.769 3.756 0 6.817 3.027 6.877 6.77h.446zm-2.222 15.757a5.11 5.11 0 0 0-5.101-4.993 5.11 5.11 0 0 0-5.102 4.993zm3.998-16.644v17.532c0 .49-.398.888-.888.888h-2.266-.002H5.295a.888.888 0 0 1-.888-.888V29.003c0-.49.398-.888.888-.888h16.312c.49 0 .888.397.888.888zm16.478 6.435H26.101a.888.888 0 1 1 0-1.775h12.872a.888.888 0 1 1 0 1.775zm4.66-10.793a.692.692 0 0 0-.69-.691H2.38a.692.692 0 0 0-.691.691V48.34c0 .382.31.692.691.692h40.562c.381 0 .691-.31.691-.692zm-29.35-2.467h17.089v-6.746c0-.655-.533-1.188-1.187-1.188h-1.158-.002H25.047v.999H27.1c1.621 0 2.94 1.32 2.94 2.94 0 .787-.306 1.526-.862 2.08a2.916 2.916 0 0 1-2.078.861h-8.877a2.944 2.944 0 0 1-2.94-2.94c0-.787.305-1.526.861-2.08a2.91 2.91 0 0 1 1.357-.773v-1.087h-2.03c-.655 0-1.188.533-1.188 1.188zm3.218-4.16v-.749a1.156 1.156 0 0 0-.444.914c0 .643.523 1.166 1.166 1.166H27.1c.311 0 .604-.121.823-.34a1.166 1.166 0 0 0-.823-1.99h-2.053v.998c0 .49-.398.888-.888.888h-5.77a.888.888 0 0 1-.888-.888zm1.776-.889h3.994V2.593h-3.994zm5.77-4.66h3.506L33.09 5.72l-3.315-2.229-4.728 7.031zm20.362 12.176V48.34a2.47 2.47 0 0 1-2.467 2.467H2.38A2.47 2.47 0 0 1-.087 48.34V24.645a2.47 2.47 0 0 1 2.467-2.467h10.128v-6.746a2.966 2.966 0 0 1 2.963-2.963h2.03V1.705c0-.49.398-.887.888-.887h5.77c.49 0 .888.397.888.887v5.637l3.75-5.577a.888.888 0 0 1 1.231-.242l4.79 3.22a.888.888 0 0 1 .241 1.232l-4.393 6.533a2.967 2.967 0 0 1 2.481 2.924v6.746h9.795a2.47 2.47 0 0 1 2.467 2.467zM35.337 41.998c.31-.37.532-.688.608-.893l-.032.035a3.682 3.682 0 0 0-.576.858zm-3.01-2.348c.352-.857.238-1.528.075-1.663-.022-.018-.067-.03-.134-.03-.186 0-.545.097-1.076.444-2.52 1.648-2.53 4.256-1.897 5.751 1.399-1.875 2.73-3.768 3.031-4.502zm10.311 2.492l-.561 1.684s.013.006.039.012c-.003 0-.201-.044-.593.019-.156.06-.54.395-.77.596-.5.435-1.016.885-1.592 1.05-.394.111-.79.038-1.087-.203a1.197 1.197 0 0 1-.25-.277 5.295 5.295 0 0 1-.037.04c-.356.366-.913.855-1.542 1.098-.828.32-1.625.153-2.19-.46-.51.409-.991.744-1.374.95-.844.454-1.829.911-2.847.589a2.419 2.419 0 0 1-.49-.217c-.412.535-.716.921-.826 1.06a.886.886 0 0 1-1.247.148.888.888 0 0 1-.147-1.247c.305-.387.64-.816.987-1.269a7.59 7.59 0 0 1-.307-.558c-1.217-2.434-.784-6.15 2.416-8.242 1.784-1.166 2.842-.686 3.313-.296.875.724 1.05 2.214.435 3.707-.423 1.029-2.117 3.383-3.514 5.24.322.047.79-.158 1.385-.478.41-.221.915-.595 1.43-1.032-.237-1.417.354-3.036 1.33-4.11 1.13-1.243 2.094-.844 2.362-.693.713.404.994 1.337.699 2.322-.23.766-1.191 1.919-2.27 2.953.025.02.038.02.064.017.413-.037 1.169-.778 1.424-1.14.058-.152.165-.36.36-.66.356-.548.63-.793.974-.874.426-.1.86.103 1.056.494.136.274.122.543.094.944.08-.068.156-.135.225-.195.536-.467 1.042-.908 1.626-1.006.82-.136 1.298-.008 1.425.034z"/></g></g></svg>