<svg xmlns="http://www.w3.org/2000/svg" width="30" height="31" viewBox="0 0 30 31"><g><g><path fill="#232a3b" d="M7.3 9.085a.804.804 0 0 0 1.14 0 .807.807 0 0 0 0-1.14L5.66 5.162a.807.807 0 1 0-1.141 1.141zm15.65 13.37a.807.807 0 1 0-1.14 1.14l2.78 2.78a.804.804 0 0 0 1.141 0 .807.807 0 0 0 0-1.14zm-15.65 0l-2.781 2.78a.807.807 0 1 0 1.14 1.14l2.781-2.78a.807.807 0 1 0-1.14-1.14zM22.38 9.32a.804.804 0 0 0 .57-.236l2.781-2.78a.807.807 0 1 0-1.14-1.142L21.81 7.944a.807.807 0 0 0 .57 1.377zM5.672 15.77a.807.807 0 0 0-.807-.807H.932a.807.807 0 1 0 0 1.613h3.933a.807.807 0 0 0 .807-.806zm23.646-.807h-3.933a.807.807 0 1 0 0 1.613h3.933a.807.807 0 1 0 0-1.613zm-14.193 10.26a.807.807 0 0 0-.807.807v3.932a.807.807 0 1 0 1.614 0V26.03a.807.807 0 0 0-.807-.807zm0-18.907a.807.807 0 0 0 .807-.806V1.577a.807.807 0 0 0-1.614 0V5.51c0 .445.361.806.807.806zm0 14.823a5.35 5.35 0 0 1-5.344-5.344 5.35 5.35 0 0 1 5.344-5.345 5.35 5.35 0 0 1 5.344 5.345 5.35 5.35 0 0 1-5.344 5.344zm0-12.302a6.965 6.965 0 0 0-6.958 6.958 6.965 6.965 0 0 0 6.958 6.958 6.965 6.965 0 0 0 6.958-6.958 6.965 6.965 0 0 0-6.958-6.958z"/></g></g></svg>