<svg xmlns="http://www.w3.org/2000/svg" width="46" height="47" viewBox="0 0 46 47"><g><g><path fill="#ff3239" d="M43.296 27.657c0 .958-.78 1.739-1.74 1.739h-10.82v-4.541h5.167a2.78 2.78 0 0 0 2.777-2.777V9.718a2.78 2.78 0 0 0-2.777-2.78H23.755a2.78 2.78 0 0 0-2.777 2.78v12.36a2.765 2.765 0 0 0 1.123 2.23c.098.14.154.307.154.481v4.607H18.37c-.96 0-1.74-.78-1.74-1.74V4.084c0-.959.78-1.74 1.74-1.74h23.187c.959 0 1.739.781 1.739 1.74zM27.065 15.483H22.91V9.717c0-.466.38-.846.845-.846h12.148c.466 0 .844.38.844.846v12.361a.845.845 0 0 1-.844.845h-5.167v-3.768a3.675 3.675 0 0 0-3.671-3.672zm1.739 27.245c0 .96-.78 1.74-1.74 1.74H3.879c-.96 0-1.74-.78-1.74-1.74V19.155c0-.96.78-1.74 1.74-1.74h10.82v4.595H9.263a2.78 2.78 0 0 0-2.777 2.78v12.36a2.78 2.78 0 0 0 2.777 2.777H21.41a2.78 2.78 0 0 0 2.777-2.777V24.79a2.777 2.777 0 0 0-1.13-2.237.814.814 0 0 1-.148-.475v-4.662h4.155c.959 0 1.739.78 1.739 1.739zm-10.434-11.4h3.885v5.822a.845.845 0 0 1-.844.844H9.263a.845.845 0 0 1-.845-.844V24.79c0-.468.38-.847.845-.847h5.435v3.714a3.675 3.675 0 0 0 3.672 3.67zM41.557.412H18.37a3.675 3.675 0 0 0-3.672 3.67v11.401H3.878a3.676 3.676 0 0 0-3.672 3.672v23.573A3.676 3.676 0 0 0 3.878 46.4h23.187a3.675 3.675 0 0 0 3.671-3.672v-11.4h10.82a3.675 3.675 0 0 0 3.672-3.671V4.083A3.675 3.675 0 0 0 41.557.412z"/></g></g></svg>