<svg xmlns="http://www.w3.org/2000/svg" width="52" height="51" viewBox="0 0 52 51"><g><g><path fill="#ff3239" d="M37.405 23.279c-7.057 0-11.975-2.658-11.975-5.043 0-2.384 4.918-5.041 11.975-5.041 7.057 0 11.975 2.657 11.975 5.041 0 2.385-4.918 5.043-11.975 5.043zm11.975-.799a1.04 1.04 0 0 0-.067.726 1.858 1.858 0 0 1-.001.993c-.594 2.184-5.315 4.542-11.907 4.542-2.462 0-4.833-.335-6.868-.965a12.53 12.53 0 0 0-1.334-.723 16.703 16.703 0 0 0-1.895-.741c-.987-.663-1.614-1.391-1.81-2.114a1.898 1.898 0 0 1 0-.998 1.041 1.041 0 0 0-.068-.724v-.403c.638.521 1.414 1 2.32 1.423 2.596 1.215 6.025 1.883 9.655 1.883 3.63 0 7.059-.668 9.655-1.883.907-.424 1.682-.902 2.32-1.423zm0 5.253c-.104.219-.137.473-.067.725a1.856 1.856 0 0 1-.001.993c-.594 2.184-5.315 4.542-11.907 4.542-1.297 0-2.564-.093-3.781-.273v-.778c0-.074-.009-.146-.023-.216.014-.137.023-.275.023-.414 0-.615-.144-1.213-.417-1.785 1.348.206 2.76.315 4.198.315 5.069 0 9.498-1.301 11.975-3.325zm0 5.042a1.04 1.04 0 0 0-.067.725 1.857 1.857 0 0 1-.001.993c-.594 2.184-5.315 4.542-11.907 4.542-1.3 0-2.568-.093-3.781-.274v-2.918c1.223.166 2.49.25 3.781.25 5.069 0 9.498-1.3 11.975-3.324zm-29.832 4.58c-7.057 0-11.975-2.658-11.975-5.043 0-2.385 4.918-5.042 11.975-5.042 1.67 0 3.22.15 4.613.41l.018.003c4.484.837 7.344 2.811 7.344 4.63 0 2.384-4.918 5.041-11.975 5.041zm11.975-.799a1.04 1.04 0 0 0-.068.726 1.856 1.856 0 0 1 0 .992c-.594 2.185-5.315 4.542-11.907 4.542S8.235 40.46 7.641 38.273a1.894 1.894 0 0 1 0-.997 1.042 1.042 0 0 0-.068-.724v-.403c.638.52 1.414.999 2.32 1.423 2.596 1.214 6.025 1.883 9.655 1.883 3.63 0 7.059-.669 9.655-1.883.906-.424 1.682-.902 2.32-1.423zm0 5.252c-.104.22-.137.474-.068.726a1.856 1.856 0 0 1 0 .992c-.594 2.185-5.315 4.543-11.907 4.543S8.235 45.71 7.641 43.525a1.894 1.894 0 0 1 0-.997 1.042 1.042 0 0 0-.068-.724v-.212c2.477 2.024 6.907 3.325 11.975 3.325s9.498-1.3 11.975-3.325zM2.599 23.568a1.897 1.897 0 0 1 0-.998 1.041 1.041 0 0 0-.068-.724v-.002c2.477 2.024 6.907 3.325 11.975 3.325 3.241 0 6.358-.547 8.824-1.526v1.778a28.197 28.197 0 0 0-3.782-.252c-3.63 0-7.059.67-9.655 1.884-.314.147-.61.3-.892.46-3.467-.797-5.962-2.326-6.402-3.946zm2.88 8.609c-1.572-.788-2.617-1.761-2.88-2.727a1.897 1.897 0 0 1 0-.998 1.041 1.041 0 0 0-.068-.724v-.83c1.09.892 2.568 1.649 4.351 2.215-.886.93-1.366 1.968-1.403 3.064zM2.53 16.804v-.212c2.477 2.024 6.907 3.325 11.975 3.325 3.284 0 6.373-.543 8.831-1.525.009.23.036.457.084.68-.058.13-.091.274-.091.425v1.856c-2.301 1.094-5.471 1.716-8.824 1.716-6.592 0-11.313-2.358-11.907-4.544a1.897 1.897 0 0 1 0-.998 1.041 1.041 0 0 0-.068-.723zm0-5.252v-.403c.638.52 1.414.999 2.32 1.423 2.596 1.214 6.025 1.883 9.655 1.883 3.63 0 7.059-.669 9.655-1.883.906-.424 1.682-.902 2.32-1.423v.407c-.104.22-.137.474-.068.726a1.856 1.856 0 0 1 0 .99c-.054.198-.142.399-.26.597-.791.528-1.426 1.11-1.891 1.734-2.3 1.387-5.924 2.213-9.756 2.213-6.592 0-11.313-2.357-11.907-4.543a1.897 1.897 0 0 1 0-.997 1.04 1.04 0 0 0-.068-.724zM14.506 2.27c7.057 0 11.975 2.657 11.975 5.042s-4.918 5.042-11.975 5.042c-7.057 0-11.975-2.657-11.975-5.042S7.45 2.27 14.506 2.27zm36.975 15.966c0-2.058-1.57-3.926-4.42-5.259-2.597-1.215-6.026-1.883-9.656-1.883-3.255 0-6.347.54-8.823 1.526V7.942a1.06 1.06 0 0 0-.023-.216 4.02 4.02 0 0 0 .023-.414c0-2.058-1.57-3.926-4.42-5.26C21.564.839 18.135.17 14.505.17c-3.63 0-7.059.67-9.655 1.884C2 3.386.43 5.253.43 7.313c0 .282.032.56.09.835-.057.13-.09.273-.09.425V29.79c0 .306.132.58.341.771.668 1.56 2.301 2.925 4.7 3.92v9.385c0 .305.133.578.342.77 1.396 3.238 7.002 5.532 13.734 5.532 7.115 0 12.975-2.562 13.934-6.09.055-.203.092-.408.115-.614.016-.074.027-.15.027-.228v-2.353a27.98 27.98 0 0 0 3.781.252c7.115 0 12.975-2.562 13.934-6.092.055-.202.092-.407.115-.612.017-.074.027-.15.027-.23V18.868a1.06 1.06 0 0 0-.023-.216 4.02 4.02 0 0 0 .023-.415z"/></g></g></svg>