<svg xmlns="http://www.w3.org/2000/svg" width="13.13" height="15" viewBox="0 0 13.13 15">
  <defs>
    <style>
      .cls-1 {
        fill: #5d6989;
        fill-rule: evenodd;
      }
    </style>
  </defs>
  <path id="_" data-name="" class="cls-1" d="M1411.81,981.269a3.75,3.75,0,1,0-3.75-3.75A3.751,3.751,0,0,0,1411.81,981.269Zm2.62,0.937h-0.49a5.094,5.094,0,0,1-4.27,0h-0.49a3.943,3.943,0,0,0-3.94,3.938v1.219a1.408,1.408,0,0,0,1.41,1.406h10.31a1.408,1.408,0,0,0,1.41-1.406v-1.219A3.943,3.943,0,0,0,1414.43,982.206Z" transform="translate(-1405.25 -973.781)"/>
</svg>
