<svg xmlns="http://www.w3.org/2000/svg" width="23" height="26" viewBox="0 0 23 26"><g><g><path fill="#5d6989" d="M18.57 15.484V9.269a3.226 3.226 0 0 1 2.375 3.108 3.226 3.226 0 0 1-2.375 3.107zm-6.862 8.904c-.458 0-.845-.28-.845-.61 0-.33.387-.61.845-.61.458 0 .845.28.845.61 0 .33-.387.61-.845.61zM4.898 9.269v6.215a3.226 3.226 0 0 1-2.374-3.107 3.226 3.226 0 0 1 2.375-3.108zm16.07-.573a9.288 9.288 0 0 0-2.819-5.992A9.295 9.295 0 0 0 11.655.078a9.29 9.29 0 0 0-6.54 2.67A9.281 9.281 0 0 0 2.33 8.853a4.894 4.894 0 0 0-1.497 3.525 4.914 4.914 0 0 0 4.91 4.908.844.844 0 0 0 .844-.844V8.312a.845.845 0 0 0-.845-.844c-.54 0-1.061.089-1.548.251.782-3.395 3.854-5.952 7.46-5.952a7.62 7.62 0 0 1 7.453 5.9 4.89 4.89 0 0 0-1.383-.2.845.845 0 0 0-.844.845v8.129c0 .466.378.844.844.844.458 0 .901-.064 1.322-.182a7.706 7.706 0 0 1-5.256 5.369c-.458-.6-1.22-.993-2.083-.993-1.397 0-2.534 1.031-2.534 2.299s1.137 2.299 2.534 2.299c1.274 0 2.33-.857 2.507-1.97 3.65-1.04 6.348-4.253 6.735-8.034a4.897 4.897 0 0 0 .018-7.377z"/></g></g></svg>